<?xml version="1.0" standalone="no"?>
<!DOCTYPE svg PUBLIC "-//W3C//DTD SVG 20010904//EN"
 "http://www.w3.org/TR/2001/REC-SVG-20010904/DTD/svg10.dtd">
<svg version="1.0" xmlns="http://www.w3.org/2000/svg"
 width="1024.000000pt" height="1024.000000pt" viewBox="0 0 1024.000000 1024.000000"
 preserveAspectRatio="xMidYMid meet">

<g transform="translate(0.000000,1024.000000) scale(0.100000,-0.100000)"
fill="#000000" stroke="none">
<path d="M4689 8269 c-26 -4 -56 -12 -67 -18 -11 -6 -44 -11 -72 -11 -48 0
-105 -11 -240 -47 -107 -28 -255 -74 -285 -88 -16 -8 -51 -21 -77 -29 -26 -9
-57 -20 -68 -26 -11 -5 -29 -14 -40 -20 -11 -5 -25 -10 -31 -10 -12 0 -252
-118 -324 -160 -27 -16 -62 -34 -77 -40 -16 -7 -28 -15 -28 -20 0 -4 -8 -10
-17 -14 -28 -9 -85 -46 -113 -71 -14 -12 -38 -30 -55 -39 -122 -66 -492 -401
-605 -549 -47 -60 -102 -130 -143 -182 -48 -60 -197 -285 -211 -319 -8 -20
-26 -51 -39 -68 -29 -38 -123 -233 -133 -275 -4 -15 -15 -44 -25 -63 -55 -112
-142 -419 -185 -655 -32 -173 -43 -515 -25 -751 17 -220 95 -601 167 -814 31
-91 62 -169 68 -175 7 -5 20 -33 30 -61 9 -28 32 -76 50 -107 18 -30 38 -70
45 -88 14 -40 120 -215 176 -289 22 -30 49 -66 58 -80 54 -79 100 -137 157
-202 91 -104 339 -348 395 -389 25 -18 73 -55 105 -81 33 -27 62 -48 65 -48 3
0 38 -24 78 -54 40 -30 83 -60 97 -66 14 -6 43 -21 65 -35 78 -47 222 -121
370 -190 44 -21 179 -71 300 -111 241 -80 530 -146 721 -164 229 -21 514 -10
764 31 149 25 495 110 542 134 18 9 73 30 123 47 49 17 114 43 144 59 29 16
62 29 71 29 10 0 28 8 41 18 13 10 58 35 99 55 41 20 107 57 145 82 39 25 80
49 92 54 11 6 24 15 28 21 3 5 23 19 44 30 21 10 49 28 62 39 13 12 63 51 111
88 47 38 126 103 175 146 93 83 385 385 411 427 9 14 33 46 54 71 21 25 38 50
38 56 0 6 7 16 15 23 7 6 29 37 47 67 18 31 41 68 50 82 10 14 23 37 30 51 7
14 27 48 44 75 17 28 35 61 39 75 4 14 13 32 20 40 41 48 172 414 220 615 34
145 75 382 87 515 16 179 5 574 -22 755 -12 83 -31 176 -41 207 -10 32 -19 64
-19 73 0 8 -4 23 -9 33 -5 9 -14 42 -20 72 -17 84 -40 163 -50 169 -4 3 -14
30 -20 60 -6 30 -22 75 -35 100 -39 76 -96 200 -96 210 0 5 -6 16 -12 23 -7 7
-25 38 -41 68 -47 94 -90 167 -143 242 -28 40 -68 98 -88 128 -21 30 -50 69
-65 85 -15 17 -35 42 -44 57 -9 15 -38 51 -64 80 -79 88 -355 359 -389 382
-17 11 -57 41 -89 66 -32 25 -65 50 -74 55 -9 6 -32 22 -52 38 -20 15 -40 27
-44 27 -4 0 -23 14 -43 31 -20 18 -59 43 -87 56 -79 38 -166 86 -212 116 -24
15 -46 27 -50 27 -4 0 -27 9 -52 21 -152 70 -210 93 -331 130 -36 12 -92 31
-125 44 -53 20 -101 32 -185 49 -14 2 -61 14 -105 25 -44 11 -98 21 -121 21
-22 0 -44 4 -50 10 -19 19 -195 29 -474 28 -157 -1 -306 -4 -331 -9z m741
-474 c800 -119 1581 -644 1992 -1337 346 -585 466 -1319 322 -1968 -114 -509
-378 -983 -764 -1371 -306 -307 -629 -506 -1045 -645 -844 -280 -1669 -171
-2398 317 -661 442 -1068 1070 -1197 1844 -107 651 8 1238 360 1830 322 541
762 918 1340 1148 217 87 528 164 770 192 154 18 470 13 620 -10z"/>
<path d="M4885 7413 c-185 -16 -438 -72 -625 -140 -583 -209 -1036 -621 -1319
-1197 -286 -582 -314 -1180 -86 -1812 264 -731 865 -1276 1620 -1469 230 -59
323 -70 585 -69 213 0 248 3 375 28 646 125 1127 420 1500 921 169 226 262
406 352 672 79 238 113 446 113 696 0 720 -295 1359 -836 1808 -452 375 -972
572 -1499 567 -77 -1 -158 -3 -180 -5z m408 -352 c14 -11 17 -34 17 -131 0
-82 4 -120 13 -127 6 -5 53 -19 103 -31 177 -43 344 -121 516 -242 123 -86
336 -298 433 -430 42 -58 82 -108 89 -112 8 -5 63 24 140 73 69 45 132 79 139
76 17 -6 109 -177 145 -267 115 -294 164 -537 164 -820 0 -258 -41 -472 -137
-711 -170 -424 -458 -773 -822 -998 -45 -27 -92 -53 -106 -56 -31 -8 -42 6
-131 173 l-68 130 -82 -38 c-89 -42 -209 -82 -300 -101 -32 -7 -60 -18 -63
-25 -2 -7 18 -82 46 -166 39 -119 47 -156 38 -165 -18 -18 -224 -45 -360 -46
l-122 -2 0 350 0 350 114 7 c375 24 709 188 932 458 34 41 68 79 75 83 15 9
56 -13 202 -106 50 -32 98 -57 106 -54 14 6 116 179 136 231 7 19 7 32 0 41
-5 6 -73 43 -150 80 -77 38 -140 75 -140 82 0 7 11 45 24 85 14 40 32 111 41
158 10 47 21 90 26 95 6 8 57 7 170 -3 121 -11 164 -11 172 -3 17 17 16 397
-2 483 -21 106 -13 104 -181 54 -79 -24 -150 -42 -157 -39 -6 3 -28 56 -48
119 -152 483 -553 868 -1031 989 -324 83 -655 42 -955 -118 -52 -28 -102 -48
-111 -45 -21 8 -267 348 -262 362 7 17 170 119 279 173 180 90 385 156 565
182 41 6 86 13 100 15 14 2 115 4 226 3 154 -2 205 -5 217 -16z m-1509 -2527
c169 -314 364 -513 633 -645 66 -33 126 -66 132 -73 8 -9 11 -69 9 -182 l-3
-169 -30 1 c-38 2 -218 81 -329 145 -48 27 -92 49 -99 49 -6 0 -49 -54 -95
-120 -46 -66 -89 -120 -97 -120 -35 0 -345 275 -345 306 0 7 50 57 110 110 61
53 110 101 110 105 0 5 -28 46 -63 92 -34 45 -80 110 -101 145 -22 37 -44 62
-55 62 -9 0 -62 -25 -116 -55 -125 -69 -132 -71 -156 -49 -21 19 -129 235
-129 258 0 13 536 256 555 252 6 -1 36 -52 69 -112z"/>
</g>
</svg>
