<svg version="1.1" id="Layer_1" xmlns="http://www.w3.org/2000/svg" xmlns:xlink="http://www.w3.org/1999/xlink" x="0px" y="0px"
	 width="100%" viewBox="0 0 4000 2560" enable-background="new 0 0 4000 2560" xml:space="preserve">
<path fill="#FFFFFF" opacity="1.000000" stroke="none" 
	d="
M2534.000000,2562.000000 
	C1689.333618,2562.000000 845.667175,2562.000000 2.000566,2562.000000 
	C2.000377,1708.667114 2.000377,855.334351 2.000189,2.001138 
	C1335.332397,2.000759 2668.664795,2.000759 4001.998047,2.000380 
	C4001.998535,855.332214 4001.998535,1708.664429 4001.999268,2561.998291 
	C3513.000000,2562.000000 3024.000000,2562.000000 2534.000000,2562.000000 
z"/>
<path fill="#04080E" opacity="1.000000" stroke="none" 
	d="
M944.379333,1334.893555 
	C941.605835,1351.853638 937.741760,1367.613159 932.846252,1383.191895 
	C919.849792,1424.550415 898.737549,1460.966064 869.061279,1492.654419 
	C840.522461,1523.128296 808.301697,1548.460083 770.598145,1566.613770 
	C742.836914,1579.980469 713.718445,1588.908325 683.325256,1594.006592 
	C612.453491,1605.894897 546.383362,1591.287720 483.818542,1557.899902 
	C430.056824,1529.209961 388.967682,1487.534546 359.214172,1434.472900 
	C339.402130,1399.140503 327.771667,1361.125854 323.692719,1321.046265 
	C315.720612,1242.712158 334.416870,1171.326660 380.945465,1107.334717 
	C427.779785,1042.921997 490.715149,1002.717712 567.040771,982.698669 
	C587.282227,977.389648 608.133911,975.944275 629.209045,975.341064 
	C674.450439,974.046082 717.029053,984.184631 758.183655,1001.742004 
	C813.831238,1025.482544 858.496094,1062.724365 893.405273,1112.049072 
	C921.677673,1151.996338 938.540649,1196.539795 945.423584,1244.561890 
	C948.803528,1268.143799 949.853333,1292.258423 946.415039,1316.218994 
	C945.570435,1322.104614 946.280945,1328.200562 944.379333,1334.893555 
z"/>
<path fill="#060606" opacity="1.000000" stroke="none" 
	d="
M1580.790527,1419.214233 
	C1574.617554,1419.942139 1569.353027,1419.862549 1564.028442,1418.997314 
	C1554.772339,1417.493286 1545.324829,1417.158569 1536.143311,1418.770142 
	C1526.050537,1420.541626 1516.231689,1418.661865 1506.305908,1418.207031 
	C1503.123291,1418.061157 1499.133423,1418.052612 1498.092163,1413.987671 
	C1496.959961,1409.568359 1499.420898,1406.254272 1502.842773,1403.782959 
	C1506.764160,1400.951050 1511.496826,1400.557617 1516.100586,1399.843750 
	C1527.862183,1398.020264 1531.401978,1393.926514 1531.464966,1381.930176 
	C1531.552246,1365.309204 1530.987793,1348.659180 1533.942383,1332.180664 
	C1534.058350,1331.533691 1534.013672,1330.847900 1533.972778,1330.184448 
	C1532.146973,1300.573608 1536.271606,1271.318604 1539.283569,1242.000854 
	C1540.267822,1232.420288 1534.034546,1221.003174 1524.777954,1218.173584 
	C1518.375610,1216.216553 1512.675293,1212.857056 1506.404053,1210.793945 
	C1499.916870,1208.659424 1496.165039,1203.489502 1492.902588,1198.097534 
	C1490.446655,1194.038940 1494.097412,1187.816895 1499.611816,1185.690430 
	C1502.475586,1184.586182 1505.484375,1184.681396 1508.487915,1184.632568 
	C1516.810791,1184.497070 1525.141846,1184.476074 1533.451538,1184.052124 
	C1540.384644,1183.698242 1546.081543,1186.179199 1550.046021,1191.522583 
	C1556.964233,1200.846436 1566.806885,1207.820557 1571.720093,1218.756470 
	C1572.505493,1220.504761 1574.006104,1222.125854 1575.556763,1223.305420 
	C1586.613281,1231.716187 1594.320557,1243.021606 1602.510254,1253.942505 
	C1606.100586,1258.730225 1609.865356,1263.460693 1614.960205,1266.808716 
	C1617.289185,1268.339355 1618.651367,1270.562012 1620.088013,1272.809326 
	C1625.494141,1281.266479 1631.732910,1289.032837 1639.309570,1295.669800 
	C1641.591919,1297.669189 1643.306641,1300.089478 1644.825806,1302.710815 
	C1645.986572,1304.713989 1647.052490,1307.221802 1648.875000,1308.319702 
	C1661.413940,1315.874146 1669.016724,1328.225586 1678.780762,1338.464478 
	C1684.050903,1343.990845 1688.823242,1342.969360 1691.207642,1335.696655 
	C1694.143311,1326.742432 1695.109253,1317.447754 1694.678223,1308.090820 
	C1693.958862,1292.469360 1693.491943,1276.798340 1691.784302,1261.272949 
	C1690.470093,1249.324585 1690.235962,1237.425903 1690.059326,1225.466675 
	C1689.918213,1215.919800 1682.361206,1206.120850 1672.893921,1203.391724 
	C1668.006470,1201.983032 1663.541504,1200.111206 1659.573120,1196.927979 
	C1656.094971,1194.138184 1654.515381,1190.675659 1655.854980,1186.383423 
	C1657.092651,1182.416992 1660.556641,1180.894775 1664.280029,1180.340576 
	C1666.887573,1179.952515 1669.619507,1180.020508 1672.257568,1180.277466 
	C1692.168823,1182.215698 1712.061279,1183.795654 1731.983521,1180.282227 
	C1735.618042,1179.641235 1739.202759,1180.592163 1742.802490,1181.487793 
	C1745.856689,1182.247681 1748.751221,1182.622192 1749.278931,1186.431641 
	C1749.777588,1190.029419 1748.751221,1193.196411 1745.741089,1195.193115 
	C1743.282104,1196.824219 1740.458496,1197.946411 1737.712402,1199.092773 
	C1734.647827,1200.372437 1731.321533,1201.105957 1728.401489,1202.635132 
	C1719.508179,1207.292725 1714.369995,1214.326538 1714.140137,1224.838135 
	C1713.856934,1237.791626 1714.382568,1250.805420 1712.172241,1263.669189 
	C1712.060791,1264.316895 1712.064941,1265.012695 1712.163086,1265.663940 
	C1715.309692,1286.558838 1710.834106,1307.334717 1711.120850,1328.196167 
	C1711.216064,1335.130981 1709.522827,1342.072388 1709.158569,1349.037476 
	C1708.881348,1354.336304 1708.670288,1359.830811 1709.732300,1364.969116 
	C1712.280518,1377.297974 1709.885254,1389.515625 1709.756226,1401.766968 
	C1709.684937,1408.545532 1702.592407,1412.615479 1696.155640,1410.039185 
	C1690.443237,1407.752563 1685.932617,1403.768066 1682.235840,1398.969849 
	C1667.807617,1380.243652 1650.922974,1363.576050 1637.144409,1344.258179 
	C1630.678223,1335.192383 1622.307861,1327.467529 1614.631226,1319.293945 
	C1612.540283,1317.067749 1610.762451,1314.815918 1609.591675,1311.981323 
	C1608.176880,1308.555908 1605.805176,1305.775757 1603.171631,1303.162476 
	C1590.958130,1291.042480 1578.552368,1279.100586 1566.728638,1266.609131 
	C1558.288818,1257.692383 1554.275757,1262.922729 1552.366577,1270.609985 
	C1550.015137,1280.077393 1550.542847,1289.831421 1552.464111,1299.373657 
	C1553.262451,1303.338257 1553.568970,1307.247925 1553.630859,1311.250000 
	C1553.980225,1333.852295 1554.457764,1356.449463 1553.683105,1379.057129 
	C1553.346191,1388.893677 1557.320312,1393.619629 1567.109375,1395.875122 
	C1570.996216,1396.770752 1574.969971,1397.282593 1578.876587,1398.101318 
	C1585.115479,1399.408569 1589.723755,1403.167725 1593.017456,1408.413696 
	C1595.799683,1412.845337 1594.573364,1415.278320 1589.323608,1416.784424 
	C1586.764038,1417.518677 1584.202515,1418.245361 1580.790527,1419.214233 
z"/>
<path fill="#060606" opacity="1.000000" stroke="none" 
	d="
M3244.004639,1418.886719 
	C3227.391113,1418.320801 3211.801025,1418.345337 3196.214111,1419.843018 
	C3192.174561,1420.231079 3186.885010,1421.314087 3185.558105,1415.377808 
	C3184.758057,1411.798218 3190.493896,1408.365479 3196.916016,1408.197754 
	C3200.578613,1408.101929 3204.250244,1408.058105 3207.909668,1408.197998 
	C3212.624268,1408.378296 3214.802979,1405.943726 3214.544678,1401.550781 
	C3214.168945,1395.160522 3215.833740,1388.980713 3216.034424,1382.659424 
	C3216.467041,1369.029297 3217.032227,1355.403442 3217.495850,1341.774292 
	C3217.676270,1336.471802 3217.065430,1331.084839 3219.524414,1326.071045 
	C3219.805176,1325.497925 3219.970947,1324.729492 3219.850098,1324.119019 
	C3217.574463,1312.622803 3220.651123,1301.015381 3219.102295,1289.510742 
	C3218.926025,1288.201050 3218.256104,1286.777832 3218.569580,1285.609497 
	C3222.316406,1271.636841 3220.084473,1257.077148 3222.943359,1242.976929 
	C3224.453125,1235.530884 3224.566895,1227.783447 3225.059570,1220.155884 
	C3225.397461,1214.927612 3221.750244,1210.089722 3216.183350,1208.339355 
	C3212.703857,1207.245239 3209.019775,1206.820312 3205.484863,1205.879761 
	C3202.285156,1205.028442 3199.016846,1204.194946 3196.044189,1202.791748 
	C3192.299072,1201.023560 3188.752686,1198.283569 3190.289062,1193.558838 
	C3191.638184,1189.410645 3195.899414,1189.197510 3199.590332,1189.371948 
	C3204.240723,1189.591919 3208.869141,1190.278076 3213.505371,1190.778564 
	C3223.478516,1191.854980 3233.438965,1191.847534 3243.417236,1190.728760 
	C3249.622559,1190.032837 3255.620605,1189.068481 3262.076172,1191.166870 
	C3267.715820,1193.000244 3273.959229,1190.495239 3279.816406,1189.461304 
	C3292.853027,1187.159790 3305.436523,1186.672974 3317.267090,1194.050903 
	C3319.455322,1195.415283 3322.237061,1196.017334 3324.832520,1196.503174 
	C3332.191650,1197.880493 3337.361572,1202.298462 3341.724365,1208.004639 
	C3342.935059,1209.588013 3343.958008,1211.735718 3345.593750,1212.506104 
	C3357.608154,1218.164307 3358.810547,1230.386353 3361.974121,1240.800293 
	C3363.786133,1246.764160 3362.911621,1254.212158 3361.208252,1260.433960 
	C3357.897461,1272.527344 3354.408447,1284.793823 3345.552002,1294.483398 
	C3339.882568,1300.686035 3333.976318,1306.506226 3325.650879,1309.000488 
	C3322.981689,1309.800293 3320.937744,1311.242065 3319.267578,1313.485474 
	C3314.956055,1319.277222 3314.901367,1320.854980 3320.377686,1325.808838 
	C3329.375000,1333.948120 3336.753418,1343.134155 3341.562012,1354.431641 
	C3346.981934,1367.165161 3356.742188,1377.021973 3364.965088,1387.861328 
	C3369.093994,1393.304810 3375.378418,1395.954468 3381.727539,1398.237183 
	C3388.472656,1400.662109 3393.085449,1404.898804 3393.775879,1412.601562 
	C3394.090332,1416.107056 3393.317871,1418.742676 3389.681396,1419.308350 
	C3383.806885,1420.221924 3377.529053,1422.046265 3372.012207,1419.705444 
	C3367.059082,1417.603638 3362.446777,1417.230103 3357.481201,1418.022339 
	C3346.767090,1419.731934 3339.069824,1414.807007 3334.399170,1405.988525 
	C3326.443115,1390.967285 3317.413330,1376.683105 3308.085205,1362.505981 
	C3302.254639,1353.644531 3297.891113,1343.832275 3292.510742,1334.656860 
	C3285.087646,1321.998047 3273.164062,1315.211304 3259.766357,1310.521484 
	C3257.485107,1309.722900 3255.900879,1310.709839 3254.551514,1312.325317 
	C3250.836914,1316.773193 3247.726074,1321.467041 3249.182617,1327.712158 
	C3250.263184,1332.347168 3250.160400,1336.943359 3249.113281,1341.575317 
	C3248.441895,1344.545288 3248.689209,1347.515869 3249.518555,1350.464966 
	C3252.273193,1360.260254 3252.368164,1370.200439 3250.553711,1380.123047 
	C3249.173828,1387.667725 3251.930664,1393.333130 3258.080566,1397.192383 
	C3262.842041,1400.180298 3268.162109,1402.263428 3273.129150,1404.943359 
	C3276.312500,1406.660889 3280.301514,1408.329712 3279.830078,1412.737061 
	C3279.303223,1417.660156 3274.638428,1418.405029 3270.870361,1419.364990 
	C3265.987549,1420.609009 3260.927979,1419.959229 3255.944824,1419.722534 
	C3252.292969,1419.548950 3248.650146,1419.173584 3244.004639,1418.886719 
z"/>
<path fill="#060606" opacity="1.000000" stroke="none" 
	d="
M2293.154053,1236.829956 
	C2287.927490,1229.906982 2283.470703,1223.320557 2277.563232,1217.801025 
	C2272.655762,1213.215820 2267.994629,1208.741699 2261.061523,1207.192627 
	C2256.277344,1206.123901 2253.114014,1202.595581 2251.198486,1198.012939 
	C2248.964844,1192.669556 2251.883301,1187.084351 2257.722900,1186.321289 
	C2261.000000,1185.892944 2264.446289,1185.754395 2267.692871,1186.267822 
	C2285.883301,1189.144775 2304.165039,1188.070435 2322.424561,1187.785889 
	C2327.335205,1187.709351 2331.631592,1189.120972 2335.461182,1191.953735 
	C2338.909180,1194.504150 2338.614258,1197.661865 2334.762939,1199.673340 
	C2331.153320,1201.558350 2327.072754,1201.570435 2323.136475,1202.219849 
	C2317.419189,1203.162964 2316.216797,1205.090942 2318.097168,1210.394165 
	C2319.841064,1215.311646 2320.837158,1220.750732 2325.828125,1223.919434 
	C2326.891602,1224.594604 2327.955566,1225.770020 2328.339844,1226.938477 
	C2334.032227,1244.249634 2349.967529,1254.559448 2357.906494,1270.458130 
	C2361.894531,1278.444336 2369.818115,1277.729614 2373.823730,1269.781738 
	C2376.021484,1265.420776 2379.785645,1261.804077 2379.868408,1256.320435 
	C2379.913574,1253.319336 2383.057129,1252.266968 2385.376221,1251.061157 
	C2388.679443,1249.343750 2389.601318,1246.760864 2390.211914,1243.111206 
	C2391.682129,1234.324097 2394.441162,1225.802856 2398.990967,1218.041138 
	C2402.844971,1211.466309 2401.456543,1207.957520 2393.737793,1207.814941 
	C2387.078857,1207.691895 2381.359619,1205.777222 2375.964111,1202.283081 
	C2374.000977,1201.011963 2371.824463,1199.522095 2372.079590,1196.889160 
	C2372.381348,1193.773193 2374.968506,1192.806763 2377.674561,1192.040649 
	C2388.550537,1188.962036 2399.107422,1187.754395 2410.797607,1189.439453 
	C2425.484619,1191.556519 2440.704102,1189.993286 2455.693604,1189.992920 
	C2459.697021,1189.992798 2463.693848,1189.943481 2467.561768,1191.225342 
	C2474.696045,1193.589844 2475.864258,1198.659790 2470.222168,1203.765259 
	C2468.295654,1205.508423 2465.865234,1206.835083 2463.456543,1207.864990 
	C2461.035645,1208.899780 2458.386475,1209.768921 2455.784424,1209.950317 
	C2439.085938,1211.114136 2426.729736,1218.035767 2418.006104,1233.206055 
	C2412.139160,1243.408203 2402.868896,1251.596680 2396.179932,1261.568604 
	C2391.843994,1268.032471 2388.159180,1274.682495 2381.601807,1279.995605 
	C2372.873779,1287.067627 2373.985107,1297.347412 2381.808350,1305.837891 
	C2382.707520,1306.813843 2384.151123,1307.716797 2384.358154,1308.835815 
	C2386.352783,1319.617676 2394.073242,1325.503906 2402.455811,1331.139038 
	C2405.401367,1333.119263 2408.508789,1336.052002 2409.706787,1339.239746 
	C2416.214844,1356.556152 2432.584961,1366.122437 2442.025391,1381.180786 
	C2446.355469,1388.088257 2453.385498,1393.218628 2461.230713,1396.655396 
	C2465.178955,1398.385132 2469.048584,1400.396851 2472.690674,1402.697021 
	C2476.904297,1405.358032 2481.810059,1408.265747 2479.984619,1414.354248 
	C2478.229492,1420.208130 2472.584717,1420.672607 2467.627930,1420.746948 
	C2460.656982,1420.851685 2453.377930,1421.350708 2446.761719,1419.634644 
	C2434.890381,1416.555298 2422.924805,1417.982544 2411.040771,1417.008667 
	C2406.397949,1416.628174 2401.740967,1416.419922 2397.090820,1416.124878 
	C2394.117188,1415.936279 2392.007324,1414.214844 2390.908447,1411.706177 
	C2389.525146,1408.547852 2392.620117,1407.109863 2394.137207,1405.110229 
	C2394.333496,1404.851685 2394.676270,1404.707275 2394.885986,1404.455688 
	C2397.119385,1401.778564 2402.673096,1402.673950 2402.625244,1397.743042 
	C2402.591553,1394.289795 2399.404541,1392.020508 2398.251709,1388.936401 
	C2392.730713,1374.165771 2382.069092,1362.257568 2375.542480,1348.018066 
	C2373.642822,1343.873413 2370.125488,1340.478516 2367.408691,1336.697632 
	C2364.349854,1332.440430 2360.131592,1332.693848 2355.714355,1333.539185 
	C2351.250000,1334.393555 2350.096924,1337.719360 2349.652832,1341.585083 
	C2349.060547,1346.745483 2346.518066,1350.594482 2342.997559,1354.522827 
	C2335.151611,1363.278076 2329.648193,1373.549805 2326.924072,1385.146484 
	C2324.825439,1394.080200 2327.064209,1398.044556 2336.180176,1400.562622 
	C2340.973877,1401.886841 2345.957031,1402.519775 2350.765381,1403.799316 
	C2354.933838,1404.908569 2358.337891,1407.337158 2357.430420,1412.238403 
	C2356.608154,1416.677490 2352.640625,1417.193848 2348.869629,1417.546997 
	C2318.431152,1420.396606 2287.935791,1417.584595 2257.476074,1418.444946 
	C2253.029053,1418.570435 2248.565918,1417.918945 2247.792236,1412.176636 
	C2246.835938,1405.078491 2249.128906,1401.748901 2256.172119,1399.985352 
	C2261.655029,1398.612549 2267.138184,1397.166870 2272.697998,1396.189209 
	C2289.492920,1393.235718 2301.292969,1383.325439 2311.347656,1370.153931 
	C2319.803955,1359.075684 2327.524902,1347.472778 2335.833496,1336.295776 
	C2340.762939,1329.664795 2343.323975,1320.959961 2345.651611,1312.816528 
	C2347.236084,1307.271973 2345.202637,1301.447021 2340.452881,1297.472412 
	C2332.466309,1290.789062 2327.759033,1281.291626 2320.166016,1274.262329 
	C2318.292236,1272.527710 2316.962646,1269.972534 2315.974365,1267.552979 
	C2311.079590,1255.570679 2303.237793,1245.822632 2293.154053,1236.829956 
z"/>
<path fill="#060606" opacity="1.000000" stroke="none" 
	d="
M1955.303223,1318.450439 
	C1953.066406,1338.164795 1952.282593,1357.104858 1951.791992,1376.065186 
	C1951.668091,1380.849609 1951.892212,1385.335938 1955.917603,1388.801636 
	C1957.734009,1390.365479 1957.960449,1392.907715 1958.823730,1395.061401 
	C1960.579468,1399.441772 1958.904297,1402.112305 1954.911133,1403.775635 
	C1945.755371,1407.589233 1937.070190,1412.842407 1927.320801,1414.834351 
	C1917.920410,1416.754883 1908.270508,1417.634521 1898.684692,1418.405396 
	C1892.061035,1418.937988 1885.279785,1417.841431 1878.708496,1418.632446 
	C1858.377197,1421.079346 1840.391724,1413.464600 1823.979492,1403.757202 
	C1811.777710,1396.540527 1799.368652,1387.915649 1792.304321,1374.367065 
	C1779.372925,1349.566284 1769.468384,1324.139648 1775.542236,1295.309570 
	C1775.745728,1294.343628 1775.783691,1293.305908 1775.693359,1292.320557 
	C1773.937012,1273.156982 1782.838379,1257.692261 1792.343262,1242.150635 
	C1801.956177,1226.432251 1814.337158,1213.972290 1830.508423,1205.227905 
	C1830.799683,1205.070435 1831.080200,1204.875732 1831.326172,1204.654419 
	C1852.131958,1185.943848 1876.979858,1186.012695 1902.703979,1188.632446 
	C1914.378540,1189.821411 1925.534546,1192.898071 1936.656372,1195.943481 
	C1946.167725,1198.547852 1954.841431,1203.865723 1964.539185,1206.402100 
	C1967.469727,1207.168579 1969.406372,1210.087646 1969.737061,1213.243530 
	C1970.749390,1222.908325 1971.161621,1232.575317 1966.611328,1241.630371 
	C1961.064819,1252.668091 1950.764282,1253.978882 1942.627319,1244.457520 
	C1938.135742,1239.201782 1934.156738,1233.760864 1931.191040,1227.145874 
	C1926.773804,1217.293335 1919.843140,1208.789307 1906.890625,1209.945801 
	C1904.462891,1210.162598 1902.249756,1209.404541 1900.297363,1208.041138 
	C1897.109131,1205.814819 1893.396240,1206.126343 1889.836914,1205.427002 
	C1875.391968,1202.589111 1864.806152,1209.828857 1855.219238,1218.721313 
	C1840.014160,1232.824707 1827.254517,1249.400635 1821.440918,1269.205566 
	C1816.642700,1285.551270 1809.901123,1302.002808 1811.854248,1319.890991 
	C1812.617310,1326.879761 1813.070068,1333.984619 1816.033813,1340.343384 
	C1821.465332,1351.996094 1824.682373,1364.895386 1834.344849,1374.288208 
	C1836.502930,1376.385864 1838.490234,1378.898315 1841.617798,1379.312378 
	C1849.139282,1380.308350 1854.205811,1384.912842 1858.846313,1390.323486 
	C1860.144287,1391.836792 1861.455933,1393.430298 1863.054810,1394.578125 
	C1873.139648,1401.817993 1901.032959,1399.791138 1910.216553,1391.349487 
	C1912.791504,1388.982544 1914.161377,1386.283569 1914.790527,1382.801147 
	C1917.269897,1369.075073 1918.473022,1355.159546 1921.399414,1341.484497 
	C1922.785278,1335.008911 1921.861206,1328.218750 1920.208618,1321.666748 
	C1917.789062,1312.073242 1914.212646,1308.704468 1904.307007,1308.542236 
	C1897.876953,1308.436890 1892.608398,1306.435059 1888.168945,1301.976196 
	C1886.446899,1300.246582 1885.300171,1298.157959 1886.278198,1295.669434 
	C1887.253296,1293.188477 1889.443848,1292.208740 1891.924683,1292.496460 
	C1906.049561,1294.134277 1920.394653,1288.737671 1934.433960,1293.927002 
	C1936.914307,1294.843872 1939.791748,1294.671021 1942.241333,1293.354858 
	C1947.910889,1290.308228 1953.817261,1290.796997 1959.765991,1291.972168 
	C1966.386108,1293.279907 1973.059204,1292.416016 1979.704468,1292.606934 
	C1983.197998,1292.707275 1986.660767,1292.820435 1987.562378,1297.032715 
	C1988.530762,1301.557739 1986.563965,1304.760376 1982.345215,1306.635254 
	C1977.048828,1308.988770 1971.199463,1308.332397 1965.713013,1309.757690 
	C1961.092041,1310.958130 1956.433716,1311.744751 1955.303223,1318.450439 
z"/>
<path fill="#070707" opacity="1.000000" stroke="none" 
	d="
M3453.903809,1355.151001 
	C3454.007568,1353.211426 3453.938232,1352.202515 3454.047607,1351.213623 
	C3456.589600,1328.270386 3453.867188,1305.447266 3452.528809,1282.591431 
	C3452.451416,1281.275146 3452.704590,1279.941895 3452.769043,1278.614868 
	C3453.284180,1268.045654 3455.489746,1257.511719 3452.657959,1246.885986 
	C3451.922363,1244.126099 3452.530273,1240.915527 3452.922852,1237.965332 
	C3454.031006,1229.637085 3453.276367,1221.392700 3452.698975,1213.069946 
	C3452.288330,1207.149292 3449.240234,1204.902344 3444.213379,1203.839355 
	C3439.614990,1202.867065 3435.083984,1202.492310 3430.370850,1203.568359 
	C3425.033936,1204.786987 3419.737793,1204.012695 3414.850830,1201.419800 
	C3411.638916,1199.715576 3409.641846,1197.025757 3410.463623,1193.275391 
	C3411.187256,1189.972534 3414.343262,1189.972900 3416.925537,1189.674805 
	C3427.585205,1188.444336 3438.299561,1189.523438 3448.813477,1190.582397 
	C3462.161621,1191.926758 3475.337646,1190.455078 3488.493896,1189.836548 
	C3509.820312,1188.833862 3531.100098,1188.973755 3552.391846,1189.600464 
	C3559.389160,1189.806396 3566.337158,1190.402100 3573.316406,1189.449707 
	C3581.702881,1188.305420 3589.906494,1190.156494 3598.156738,1191.135742 
	C3605.358398,1191.990601 3607.045654,1197.545532 3607.767090,1203.322266 
	C3608.884277,1212.267944 3608.549561,1221.292114 3607.968262,1230.272217 
	C3607.603027,1235.913696 3606.889160,1241.536133 3606.208740,1247.152222 
	C3605.631348,1251.916626 3603.117432,1253.511963 3598.745850,1251.777832 
	C3595.926270,1250.659302 3593.752441,1248.569702 3591.765381,1246.253174 
	C3586.096191,1239.643799 3581.229980,1232.538330 3577.685303,1224.552246 
	C3576.066650,1220.905640 3574.440186,1217.250732 3572.571289,1213.730225 
	C3570.379150,1209.599976 3567.074707,1207.212402 3562.070557,1207.649902 
	C3542.677002,1209.345337 3523.695557,1203.974854 3504.380371,1204.205078 
	C3501.371338,1204.240967 3498.493652,1203.501465 3495.563477,1202.750732 
	C3488.181641,1200.858765 3485.239014,1203.253906 3484.767578,1211.040894 
	C3484.687256,1212.368774 3484.758789,1213.706055 3484.759521,1215.038940 
	C3484.760254,1216.705078 3484.707764,1218.373291 3484.769531,1220.037109 
	C3485.341553,1235.487549 3481.444092,1250.885864 3485.587402,1266.493042 
	C3487.201904,1272.574707 3485.049561,1279.689453 3484.439209,1286.317627 
	C3484.023682,1290.827759 3485.524170,1293.232056 3490.393799,1293.265015 
	C3500.676025,1293.334839 3510.928467,1294.604004 3521.236816,1293.986572 
	C3524.541992,1293.788696 3527.881592,1293.832397 3531.186768,1294.049561 
	C3539.443604,1294.592041 3542.901367,1292.237915 3543.956787,1283.956787 
	C3544.841553,1277.018066 3545.657471,1270.127686 3547.936523,1263.473022 
	C3549.687988,1258.358276 3553.604980,1255.497559 3558.129883,1256.245239 
	C3562.339111,1256.940796 3565.211670,1260.220337 3565.194336,1265.728271 
	C3565.114258,1291.312378 3566.951660,1316.991821 3561.883057,1342.359497 
	C3561.493652,1344.308716 3561.008301,1346.257568 3560.349121,1348.129761 
	C3559.203369,1351.383057 3556.604492,1352.658203 3553.338867,1352.720459 
	C3549.920654,1352.785522 3547.581787,1350.942261 3546.457520,1347.920898 
	C3545.658447,1345.772949 3545.549805,1343.371460 3545.099365,1341.089722 
	C3544.198486,1336.526367 3543.298828,1331.962524 3542.354980,1327.407715 
	C3540.404053,1317.992554 3534.571533,1313.264404 3525.008789,1312.497559 
	C3514.383545,1311.645508 3503.725342,1312.563843 3493.085449,1311.377441 
	C3488.261963,1310.839600 3482.500000,1312.777466 3480.318848,1316.772461 
	C3478.552734,1320.007446 3477.153564,1324.755737 3478.342529,1329.278931 
	C3479.097900,1332.153564 3478.773438,1335.371338 3479.809814,1338.102661 
	C3486.027100,1354.488281 3483.993408,1371.577637 3484.357178,1388.445679 
	C3484.640625,1401.588989 3486.957520,1404.378174 3500.150391,1404.285767 
	C3513.774414,1404.190186 3527.507080,1405.006104 3540.891602,1401.432495 
	C3542.558105,1400.987549 3543.999512,1400.994629 3545.689697,1401.379517 
	C3558.292725,1404.249512 3570.629883,1404.477173 3582.471924,1398.002686 
	C3585.602051,1396.291504 3589.571777,1396.432129 3592.632568,1394.114014 
	C3597.510498,1390.420166 3601.313232,1386.061890 3603.429932,1380.164062 
	C3606.245117,1372.320557 3611.261475,1366.327515 3619.216553,1363.107788 
	C3624.470703,1360.981079 3625.292480,1361.591553 3626.843994,1366.773071 
	C3630.260986,1378.182739 3630.298828,1389.631104 3628.530029,1401.288086 
	C3627.262939,1409.638550 3624.218506,1413.793579 3615.989014,1415.975464 
	C3606.518311,1418.486450 3596.842773,1417.887207 3587.205566,1417.131348 
	C3585.244629,1416.977539 3583.158936,1415.833862 3581.387207,1416.246704 
	C3563.255859,1420.472046 3544.871338,1417.929321 3526.615234,1418.440308 
	C3512.963623,1418.822388 3499.292480,1418.525513 3485.630127,1418.506226 
	C3482.966797,1418.502441 3480.079834,1419.032227 3477.679932,1418.203857 
	C3468.642822,1415.084839 3459.961914,1417.298584 3451.285645,1419.411377 
	C3440.782715,1421.968994 3430.098145,1421.342529 3419.468506,1421.612549 
	C3413.986572,1421.751831 3411.231445,1418.636963 3410.588623,1412.051025 
	C3410.134033,1407.392944 3412.490234,1404.413452 3416.837158,1403.150024 
	C3418.720215,1402.602539 3420.785156,1402.534912 3422.770264,1402.513062 
	C3426.766602,1402.468872 3430.764404,1402.631470 3434.761963,1402.662598 
	C3450.273682,1402.783813 3451.786621,1401.234253 3451.871338,1385.907959 
	C3451.926514,1375.936401 3451.217529,1365.902100 3453.903809,1355.151001 
z"/>
<path fill="#070707" opacity="1.000000" stroke="none" 
	d="
M2135.990234,1418.514526 
	C2118.000244,1418.514526 2101.008301,1418.519287 2084.016357,1418.511353 
	C2079.026855,1418.508911 2074.085205,1418.567505 2069.194336,1416.970215 
	C2063.188477,1415.008911 2057.236816,1417.422852 2051.622803,1418.822388 
	C2040.107910,1421.692871 2028.495361,1421.339355 2016.877319,1421.612793 
	C2011.567993,1421.737793 2009.422363,1419.262817 2008.330444,1412.831421 
	C2007.508423,1407.989624 2009.734497,1404.392090 2014.661499,1403.086670 
	C2016.562622,1402.583130 2018.618164,1402.523804 2020.605103,1402.510376 
	C2024.934204,1402.480957 2029.264771,1402.682373 2033.594238,1402.663208 
	C2047.758057,1402.600830 2049.727295,1400.844238 2049.418701,1386.643311 
	C2048.998291,1367.285522 2052.450195,1348.188965 2052.899902,1328.895020 
	C2052.977295,1325.573120 2052.976074,1322.358398 2052.626953,1319.028320 
	C2050.649170,1300.157959 2049.545654,1281.245239 2051.538574,1262.288574 
	C2051.642822,1261.296753 2052.187988,1260.232422 2051.965576,1259.342651 
	C2048.104004,1243.903198 2052.498779,1228.182373 2050.327393,1212.640869 
	C2049.651367,1207.802856 2047.609131,1205.329224 2043.398804,1204.253418 
	C2038.557983,1203.016235 2033.690063,1202.207520 2028.605835,1203.460571 
	C2023.287720,1204.771362 2017.998535,1204.117188 2013.023560,1201.715942 
	C2009.777588,1200.149170 2007.617676,1197.739136 2008.083984,1193.867310 
	C2008.586060,1189.698486 2012.177979,1189.916138 2014.976074,1189.629761 
	C2025.628296,1188.539429 2036.353027,1189.475586 2046.858398,1190.613037 
	C2060.219238,1192.059448 2073.374023,1190.348999 2086.540771,1189.788940 
	C2107.528564,1188.896118 2128.476807,1188.964478 2149.432373,1189.565918 
	C2156.760742,1189.776245 2164.032227,1190.388184 2171.348633,1189.411621 
	C2179.387451,1188.338501 2187.270020,1190.171387 2195.200928,1191.009155 
	C2200.546143,1191.573853 2203.274414,1194.730835 2204.621338,1199.838745 
	C2206.879639,1208.401123 2205.942139,1217.060059 2205.927979,1225.685547 
	C2205.916016,1233.009521 2203.814209,1240.142334 2203.783691,1247.527832 
	C2203.765869,1251.861206 2201.072266,1253.240967 2196.919922,1251.926636 
	C2193.979492,1250.995483 2191.774902,1248.970703 2189.771240,1246.684937 
	C2183.808594,1239.884277 2178.776611,1232.489990 2175.098877,1224.195312 
	C2173.482666,1220.549683 2171.921631,1216.856934 2169.981934,1213.383057 
	C2167.931152,1209.710083 2164.919189,1207.235962 2160.290283,1207.666260 
	C2141.563965,1209.406860 2123.243408,1204.236084 2104.602295,1204.360840 
	C2100.634277,1204.387451 2096.725342,1203.752197 2092.800293,1202.669556 
	C2086.055664,1200.808960 2082.728027,1203.372192 2082.362061,1210.386841 
	C2082.067383,1216.035522 2082.326172,1221.711914 2082.294922,1227.375732 
	C2082.263916,1233.030762 2082.510742,1238.709229 2080.660889,1244.201416 
	C2079.901367,1246.455688 2079.767822,1248.849731 2080.546143,1251.095947 
	C2084.252197,1261.792969 2083.605225,1272.630493 2082.351318,1283.650513 
	C2081.323975,1292.676758 2081.990967,1293.227905 2091.219971,1293.562500 
	C2104.806641,1294.055542 2118.406738,1294.252075 2132.003174,1294.388306 
	C2137.558594,1294.443970 2141.140137,1290.375977 2141.846680,1282.756836 
	C2142.433105,1276.431396 2143.114746,1270.254028 2145.438477,1264.241455 
	C2147.733887,1258.301636 2151.186768,1255.351562 2155.966797,1256.288940 
	C2160.334473,1257.145752 2162.595703,1260.533447 2162.670166,1267.000610 
	C2162.785400,1276.994507 2161.989014,1287.054077 2162.869629,1296.971191 
	C2164.183838,1311.776001 2161.418945,1326.140015 2159.815674,1340.652466 
	C2159.670410,1341.968506 2159.246338,1343.251587 2158.999512,1344.559082 
	C2158.123779,1349.202026 2156.246582,1352.896362 2150.714355,1352.696533 
	C2145.107666,1352.494263 2143.519043,1348.270142 2142.957764,1343.852295 
	C2142.117188,1337.233398 2141.343018,1330.639404 2139.056396,1324.328369 
	C2136.716064,1317.868774 2132.595459,1313.426880 2125.350586,1313.014648 
	C2113.404053,1312.334717 2101.441895,1311.282593 2089.498047,1311.416016 
	C2080.507080,1311.516357 2075.713379,1317.454468 2075.843994,1326.585083 
	C2075.896240,1330.224854 2076.007324,1334.116699 2077.274414,1337.443237 
	C2083.518555,1353.838135 2081.590088,1370.909302 2082.009521,1387.792847 
	C2082.042480,1389.124634 2081.981934,1390.459229 2082.025146,1391.790527 
	C2082.309326,1400.548096 2085.161133,1403.980225 2094.046631,1404.175415 
	C2108.348145,1404.489502 2122.718018,1404.895020 2136.850586,1401.910889 
	C2139.474854,1401.356689 2141.767822,1401.192261 2144.522705,1401.719360 
	C2156.061523,1403.927246 2167.614990,1404.784180 2178.445557,1398.539673 
	C2179.566650,1397.893066 2180.954834,1397.679688 2182.241943,1397.355591 
	C2191.306885,1395.072021 2197.312256,1389.537964 2200.650146,1380.773560 
	C2203.714600,1372.725830 2208.688477,1366.247070 2217.068604,1362.974609 
	C2222.181885,1360.977661 2222.821777,1361.704956 2224.441895,1367.039551 
	C2227.807861,1378.121338 2227.650879,1389.224243 2226.262695,1400.536621 
	C2225.185059,1409.321167 2221.964600,1413.779175 2213.352295,1416.018188 
	C2203.872803,1418.482788 2194.193359,1417.984131 2184.574463,1417.030151 
	C2182.653564,1416.839600 2180.713623,1415.702881 2178.746582,1416.238525 
	C2164.980713,1419.986328 2150.917236,1417.975098 2135.990234,1418.514526 
z"/>
<path fill="#060606" opacity="1.000000" stroke="none" 
	d="
M3025.168945,1193.255005 
	C3030.408691,1189.762329 3035.190430,1188.816650 3040.908203,1189.653809 
	C3049.739014,1190.946533 3058.601074,1188.436890 3067.700439,1189.548584 
	C3079.673828,1191.011353 3089.777100,1196.679688 3100.189941,1201.562988 
	C3105.457764,1204.033447 3109.760498,1208.675537 3115.439697,1210.849731 
	C3116.055420,1211.085205 3116.908203,1211.349487 3117.140869,1211.841675 
	C3122.089844,1222.318115 3134.604980,1225.863159 3139.535400,1236.390137 
	C3141.220703,1239.988770 3143.684814,1243.216187 3144.380859,1247.269897 
	C3144.604004,1248.568481 3144.942383,1249.892944 3145.493408,1251.082642 
	C3156.984375,1275.892212 3159.130127,1292.397827 3156.750488,1321.729004 
	C3156.129150,1329.390381 3153.706543,1336.658936 3153.587646,1344.305420 
	C3153.550537,1346.696045 3152.356934,1348.773682 3151.087402,1350.751709 
	C3150.009033,1352.432007 3148.378418,1353.950317 3147.881592,1355.781616 
	C3143.172607,1373.141846 3130.044189,1384.059448 3118.041260,1396.054443 
	C3108.790039,1405.299805 3098.033691,1411.183594 3085.661865,1414.615234 
	C3080.533203,1416.037842 3075.274658,1417.107422 3070.300537,1418.947388 
	C3055.613037,1424.380249 3041.507324,1422.522217 3026.689209,1418.294678 
	C2997.644287,1410.008545 2977.033691,1391.286499 2963.136963,1366.061157 
	C2954.278564,1349.981567 2949.819092,1331.458008 2948.575439,1312.523926 
	C2947.119873,1290.369019 2951.410400,1269.528564 2960.576660,1249.507446 
	C2961.131104,1248.296631 2961.375488,1246.691650 2962.305664,1245.944580 
	C2971.059814,1238.913818 2975.517334,1228.445435 2982.969971,1220.402832 
	C2984.535645,1218.713013 2986.235596,1216.864502 2988.261475,1215.929443 
	C3001.246094,1209.937012 3011.130127,1198.921753 3025.168945,1193.255005 
z"/>
<path fill="#050505" opacity="1.000000" stroke="none" 
	d="
M2535.502441,1376.802979 
	C2536.609131,1370.703613 2537.791260,1365.553711 2536.028809,1360.174561 
	C2535.334717,1358.056519 2535.291260,1355.448364 2535.801025,1353.261230 
	C2538.037598,1343.661133 2536.825684,1334.043823 2536.411865,1324.420410 
	C2536.140625,1318.109131 2535.480713,1311.734619 2539.812988,1306.250854 
	C2540.391602,1305.518311 2540.880371,1304.294556 2540.701172,1303.448486 
	C2538.764648,1294.304321 2543.404541,1285.303101 2540.703857,1275.952515 
	C2538.587402,1268.623779 2539.811035,1260.714844 2539.700684,1253.057495 
	C2539.634277,1248.443604 2540.277832,1243.808105 2538.247803,1239.316772 
	C2536.967285,1236.483887 2537.568115,1233.432983 2538.854980,1230.587524 
	C2540.734863,1226.431030 2540.075439,1222.030640 2539.606934,1217.797852 
	C2538.800293,1210.508911 2536.280518,1207.617188 2529.099121,1206.701660 
	C2524.141602,1206.069824 2519.605957,1203.910156 2514.490723,1203.817993 
	C2508.198975,1203.704590 2504.442139,1200.233276 2504.005615,1195.396973 
	C2503.600830,1190.911865 2507.310791,1185.618774 2512.788330,1184.763794 
	C2520.327148,1183.586914 2528.135986,1182.345215 2535.635742,1183.086792 
	C2551.293701,1184.635010 2566.997314,1183.092163 2582.546387,1184.459351 
	C2595.076904,1185.561157 2607.486816,1183.451538 2620.139160,1185.556274 
	C2635.520752,1188.114868 2647.895752,1194.941406 2657.748047,1206.168457 
	C2669.677490,1219.762451 2677.783203,1235.922974 2676.579346,1254.227783 
	C2675.438477,1271.578613 2670.202881,1288.282593 2657.056885,1301.144775 
	C2655.637451,1302.533813 2653.617676,1303.535767 2652.702393,1305.177979 
	C2645.479492,1318.134155 2632.247803,1320.725464 2619.746582,1324.603760 
	C2613.492920,1326.543701 2607.352295,1326.334595 2601.151855,1324.032837 
	C2594.001709,1321.378418 2586.171631,1321.745605 2578.902344,1319.071045 
	C2575.010742,1317.639160 2571.498047,1319.223267 2569.861328,1324.312256 
	C2567.797852,1330.729248 2566.047363,1336.483398 2569.244141,1343.291626 
	C2571.756836,1348.642578 2571.287598,1354.626221 2568.963379,1360.573608 
	C2564.668701,1371.564087 2569.191895,1382.210815 2572.019531,1392.603516 
	C2573.695557,1398.763550 2579.641846,1400.408813 2585.853027,1399.906250 
	C2592.312012,1399.383545 2598.267822,1399.991333 2603.236084,1405.150513 
	C2606.302979,1408.335205 2605.915039,1410.671509 2603.446045,1413.671143 
	C2600.694092,1417.014160 2597.261719,1418.689087 2592.982422,1418.465454 
	C2573.668213,1417.456421 2554.490723,1420.845093 2535.154297,1420.138550 
	C2528.481445,1419.894775 2521.991455,1418.670898 2515.386230,1418.189331 
	C2509.956543,1417.793335 2506.660400,1413.617920 2505.635742,1408.308228 
	C2504.649658,1403.197754 2508.259033,1401.241089 2511.467041,1398.890747 
	C2513.972900,1397.054810 2516.833984,1396.507202 2519.875244,1396.136353 
	C2531.495605,1394.719604 2532.958496,1393.182251 2534.619629,1381.606812 
	C2534.808838,1380.289062 2535.108398,1378.986938 2535.502441,1376.802979 
z"/>
<path fill="#060606" opacity="1.000000" stroke="none" 
	d="
M1479.163208,1402.928711 
	C1484.421387,1413.078003 1479.728760,1421.486938 1470.195190,1420.899414 
	C1446.293701,1419.426392 1422.402832,1417.541260 1398.418457,1418.478516 
	C1397.087646,1418.530640 1395.751465,1418.452393 1394.421143,1418.510742 
	C1391.060181,1418.657837 1388.317017,1417.668213 1387.803589,1413.978882 
	C1387.266357,1410.116211 1388.144409,1405.415771 1392.103149,1405.012207 
	C1398.535034,1404.356445 1402.379272,1398.634766 1408.476685,1398.117065 
	C1411.498413,1397.860474 1412.538940,1396.335083 1412.413452,1393.621582 
	C1412.213379,1389.302368 1412.621582,1384.817261 1411.589355,1380.698853 
	C1407.953613,1366.191650 1404.077515,1351.731445 1399.769531,1337.410767 
	C1397.076294,1328.457886 1392.838623,1325.827637 1384.078003,1328.041260 
	C1377.437988,1329.719116 1370.852417,1329.934814 1364.273804,1329.486084 
	C1353.482666,1328.750000 1343.206909,1332.177368 1332.593018,1332.592285 
	C1329.924927,1332.696655 1328.377441,1334.119263 1327.944458,1336.855347 
	C1327.424316,1340.141724 1326.657959,1343.388550 1326.104126,1346.670410 
	C1325.108398,1352.568237 1324.116577,1358.366943 1321.274292,1363.842773 
	C1317.377197,1371.351196 1319.654297,1380.240112 1316.491333,1388.141113 
	C1315.399780,1390.868164 1318.155396,1393.689819 1321.378662,1394.617554 
	C1325.852905,1395.905273 1330.368408,1397.051025 1334.872192,1398.234741 
	C1339.089844,1399.343262 1343.171631,1400.768311 1346.541260,1403.656128 
	C1349.890381,1406.526367 1351.230835,1410.258423 1349.744507,1414.401611 
	C1348.423340,1418.084229 1345.001465,1418.273071 1341.497070,1418.584229 
	C1318.556274,1420.620483 1295.569824,1419.929932 1272.597656,1419.951782 
	C1266.191772,1419.957886 1264.563721,1417.774902 1263.853638,1409.583740 
	C1263.285522,1403.030029 1264.341919,1401.273926 1270.999268,1400.122437 
	C1274.666748,1399.487793 1278.009277,1398.270874 1281.452637,1397.022217 
	C1290.750610,1393.650879 1297.269165,1388.698730 1294.749268,1377.348755 
	C1294.242065,1375.064209 1295.673096,1373.013062 1296.519897,1370.831055 
	C1300.897217,1359.550659 1308.709595,1349.786499 1310.818604,1337.450806 
	C1311.361328,1334.276245 1312.570679,1331.097412 1312.912231,1327.792114 
	C1314.147583,1315.839233 1316.964600,1304.319580 1322.224365,1293.457642 
	C1322.657349,1292.563354 1323.189087,1291.632812 1323.295898,1290.676758 
	C1325.605225,1269.985229 1337.967041,1252.269043 1340.722412,1231.717163 
	C1347.930420,1221.677490 1346.234619,1208.623535 1352.071289,1198.106445 
	C1352.527832,1197.283936 1352.566650,1196.165161 1352.591675,1195.178833 
	C1352.718018,1190.209961 1352.129028,1185.088501 1357.165894,1181.717163 
	C1363.507568,1177.472412 1369.392944,1172.358154 1377.713745,1172.466309 
	C1384.852173,1172.558960 1388.125122,1174.682983 1389.977783,1181.655762 
	C1392.707031,1191.927734 1393.917969,1202.515747 1396.262451,1212.902100 
	C1401.234131,1234.926270 1405.136475,1257.488159 1413.210693,1278.359253 
	C1421.993164,1301.060425 1425.068970,1325.471069 1435.861816,1347.375366 
	C1436.443237,1348.555420 1437.233032,1350.040894 1436.974243,1351.165161 
	C1433.714111,1365.327026 1444.961182,1375.012085 1448.228760,1387.185669 
	C1450.301147,1394.906860 1457.580322,1399.031616 1465.891724,1399.869873 
	C1470.193726,1400.303711 1474.571411,1400.242798 1479.163208,1402.928711 
z"/>
<path fill="#060606" opacity="1.000000" stroke="none" 
	d="
M1242.277832,1182.743164 
	C1248.722778,1181.836792 1254.173218,1180.059326 1259.927612,1180.408081 
	C1267.572998,1180.871826 1273.836304,1184.841919 1274.724609,1190.021118 
	C1275.683350,1195.611206 1271.254761,1203.313965 1264.729248,1205.847168 
	C1259.426270,1207.905518 1254.192261,1209.874268 1249.687012,1213.426514 
	C1244.715698,1217.346313 1241.611328,1222.923218 1237.219727,1227.438354 
	C1228.771973,1236.123413 1220.670776,1245.207397 1213.849976,1255.447510 
	C1209.710693,1261.661987 1203.349854,1266.406250 1197.933960,1271.757202 
	C1195.307007,1274.352783 1192.829346,1276.950806 1191.955322,1280.753052 
	C1191.110474,1284.428467 1189.003662,1287.495728 1186.195435,1289.923340 
	C1180.979736,1294.432251 1179.115112,1300.015381 1179.537842,1306.812012 
	C1179.929932,1313.112671 1179.542847,1319.430908 1180.617920,1325.732666 
	C1181.641724,1331.734131 1180.312866,1337.622925 1178.502319,1343.382446 
	C1177.708252,1345.908569 1175.705078,1349.117920 1176.561035,1350.919312 
	C1180.757202,1359.748535 1177.491211,1369.407837 1180.170898,1378.193359 
	C1183.781372,1390.030762 1190.472168,1398.930664 1204.188232,1399.957397 
	C1206.455811,1400.127319 1208.652344,1401.196533 1210.891357,1401.815430 
	C1213.772339,1402.611572 1217.321045,1403.102905 1217.718018,1406.630615 
	C1218.198486,1410.899902 1215.904175,1414.280640 1212.172974,1416.468018 
	C1208.232056,1418.778198 1203.721924,1419.022949 1199.532104,1418.305908 
	C1191.775757,1416.978638 1184.313599,1417.742798 1176.780029,1419.475830 
	C1174.542358,1419.990479 1172.059448,1420.294922 1169.838013,1419.885986 
	C1153.555664,1416.888306 1137.311890,1419.834839 1121.055908,1419.964844 
	C1119.390503,1419.978149 1117.724731,1419.979858 1116.059326,1419.965454 
	C1107.372559,1419.890625 1101.425049,1416.542603 1101.047241,1411.522827 
	C1100.648071,1406.218750 1108.847900,1397.483398 1115.277954,1396.725586 
	C1118.566406,1396.338135 1121.936401,1396.708374 1125.260620,1396.549561 
	C1137.316162,1395.973999 1142.198975,1391.089966 1142.269531,1379.303589 
	C1142.403076,1357.003540 1141.771729,1334.686401 1143.928833,1312.438477 
	C1144.995972,1301.430908 1141.269287,1292.349121 1133.634033,1284.413696 
	C1126.045532,1276.526978 1120.026611,1268.001343 1116.308594,1257.040283 
	C1113.265137,1248.068481 1105.354858,1240.667847 1099.234131,1232.859009 
	C1096.771606,1229.717163 1094.512085,1226.507568 1092.261597,1223.221802 
	C1085.250610,1212.985718 1077.895020,1203.071655 1063.757935,1202.214600 
	C1058.950806,1201.923218 1055.853394,1199.266602 1055.666870,1193.853516 
	C1055.485718,1188.599121 1059.071655,1187.535522 1062.915894,1185.848755 
	C1071.644653,1182.018799 1080.857300,1182.312500 1089.435669,1184.251953 
	C1106.555664,1188.122559 1123.143311,1185.458740 1139.898804,1182.863770 
	C1142.521851,1182.457642 1145.210327,1182.029419 1147.835815,1182.180054 
	C1152.267944,1182.434204 1156.129883,1186.325317 1156.536499,1190.396362 
	C1156.974609,1194.783447 1153.672974,1196.044556 1150.584351,1197.265503 
	C1146.890869,1198.725708 1143.161011,1199.869751 1139.065430,1200.200439 
	C1131.412354,1200.818481 1129.343262,1203.486816 1129.644531,1211.247681 
	C1129.786133,1214.896973 1130.184570,1218.522461 1131.615845,1221.994507 
	C1139.189941,1240.366821 1150.192627,1256.196777 1165.679810,1268.832153 
	C1169.390869,1271.859741 1172.777344,1272.155273 1176.289673,1268.914673 
	C1182.096558,1263.556885 1189.385376,1259.639282 1192.434570,1251.588135 
	C1193.204956,1249.553833 1195.292114,1248.003296 1196.836670,1246.286499 
	C1197.268677,1245.806152 1198.093140,1245.644653 1198.449219,1245.135254 
	C1203.587891,1237.784180 1207.893188,1229.893799 1212.786987,1222.377930 
	C1216.090088,1217.304932 1211.946777,1210.551147 1205.899170,1207.980835 
	C1201.932617,1206.294922 1197.772461,1205.045532 1193.870728,1203.231445 
	C1190.223267,1201.535400 1188.773315,1198.475342 1188.834595,1194.296143 
	C1188.900024,1189.829956 1191.317993,1187.682739 1194.979614,1186.238159 
	C1203.586304,1182.842529 1212.592041,1183.214722 1221.561768,1183.578735 
	C1228.211670,1183.848633 1234.854980,1184.650146 1242.277832,1182.743164 
z"/>
<path fill="#060606" opacity="1.000000" stroke="none" 
	d="
M3801.622070,1367.217285 
	C3793.385986,1393.224365 3778.982422,1411.807983 3751.612061,1418.445312 
	C3735.989746,1422.233643 3720.633789,1421.956421 3705.077637,1419.848511 
	C3699.849121,1419.140137 3694.623047,1417.948364 3690.345215,1414.255859 
	C3686.479492,1410.919189 3681.476074,1409.820190 3676.825684,1408.035889 
	C3673.442139,1406.737793 3669.996094,1405.721436 3667.085938,1403.188110 
	C3658.694824,1395.884277 3655.832764,1387.213257 3658.985352,1376.403076 
	C3661.125000,1369.067871 3662.669922,1361.561035 3664.562500,1354.151611 
	C3665.799805,1349.307373 3668.041016,1346.117310 3673.901367,1345.474609 
	C3679.837402,1344.823730 3682.545166,1347.250854 3684.373535,1352.178345 
	C3686.901123,1358.990112 3690.992920,1365.253052 3691.023682,1372.919678 
	C3691.037598,1376.378418 3692.804199,1379.277344 3695.417480,1381.593750 
	C3696.663330,1382.698364 3698.415771,1383.603394 3699.022705,1384.997559 
	C3703.524658,1395.338623 3712.529053,1396.171509 3722.123047,1397.054565 
	C3731.813232,1397.946533 3740.992920,1398.824951 3750.379883,1394.413818 
	C3761.680176,1389.103516 3769.578857,1377.159790 3768.427246,1364.306641 
	C3768.130371,1360.994141 3767.399170,1357.706299 3767.292725,1354.393677 
	C3766.878174,1341.492554 3758.911377,1333.638916 3748.698975,1328.083252 
	C3731.177246,1318.551514 3714.375244,1308.017212 3698.614990,1295.804443 
	C3694.402832,1292.540405 3690.376953,1288.944580 3685.833252,1286.222778 
	C3679.892578,1282.664185 3676.126221,1277.502930 3672.297363,1271.954590 
	C3666.606689,1263.708008 3663.243896,1255.285034 3664.221680,1244.991089 
	C3665.395264,1232.642700 3666.160400,1220.355591 3674.517090,1210.205811 
	C3675.363770,1209.177979 3676.194580,1208.129761 3676.943848,1207.030396 
	C3686.551025,1192.936768 3700.625732,1187.182739 3716.935059,1186.030518 
	C3723.899658,1185.538452 3730.958740,1185.516479 3737.917236,1186.042603 
	C3745.523926,1186.617676 3752.457764,1188.389526 3758.221924,1194.775391 
	C3765.851318,1203.228149 3772.861084,1203.086426 3782.835938,1196.459229 
	C3788.362305,1192.787354 3790.588867,1193.309570 3793.809814,1199.344116 
	C3795.205811,1201.959473 3796.783691,1204.576294 3796.624023,1207.761963 
	C3795.972412,1220.737915 3794.559082,1233.482544 3788.383545,1245.311768 
	C3783.950684,1253.802490 3774.311523,1254.767578 3768.710938,1246.870239 
	C3766.146484,1243.254028 3765.286621,1238.929077 3764.185547,1234.770508 
	C3760.802002,1221.994263 3751.349854,1214.108398 3741.640625,1206.432983 
	C3739.801270,1204.978882 3737.467285,1204.453369 3735.040283,1204.517700 
	C3732.375977,1204.588379 3729.558838,1205.085449 3727.068848,1204.420776 
	C3718.115967,1202.030396 3711.979004,1206.331055 3705.796387,1211.942871 
	C3700.861816,1216.421631 3697.561768,1220.959106 3697.489990,1228.045044 
	C3697.419189,1235.037842 3698.177979,1241.884521 3699.046387,1248.749390 
	C3699.423828,1251.732422 3700.683105,1254.498657 3702.893311,1256.718140 
	C3714.712646,1268.587891 3727.273682,1279.710938 3743.572510,1284.673706 
	C3754.086670,1287.875244 3762.133545,1294.764160 3771.397705,1299.800171 
	C3784.687988,1307.024902 3792.196777,1319.259766 3799.156738,1331.595825 
	C3803.285400,1338.913574 3805.591309,1347.499634 3802.202148,1356.476074 
	C3801.088623,1359.425293 3801.765381,1363.050171 3801.622070,1367.217285 
z"/>
<path fill="#050505" opacity="1.000000" stroke="none" 
	d="
M2771.998291,1418.498535 
	C2754.979492,1417.791382 2739.075439,1419.778931 2723.117920,1420.509277 
	C2717.465820,1420.768066 2711.802979,1420.856079 2706.144043,1420.890381 
	C2701.982910,1420.915649 2697.748535,1420.488647 2696.963135,1415.291138 
	C2696.253662,1410.591797 2698.293457,1406.834106 2702.385254,1404.381958 
	C2706.945801,1401.648804 2712.136475,1401.144897 2716.890381,1402.765747 
	C2723.331055,1404.961304 2727.032959,1401.984131 2730.476807,1397.487915 
	C2735.775635,1390.570679 2737.358154,1382.504272 2737.728027,1374.046997 
	C2738.993652,1345.124878 2739.863770,1316.215454 2737.494873,1287.291626 
	C2736.269043,1272.328125 2737.836182,1257.489868 2739.728760,1242.599609 
	C2740.936523,1233.097290 2740.226318,1223.306274 2739.853516,1213.664795 
	C2739.633057,1207.960205 2733.726074,1202.651489 2727.975830,1202.375488 
	C2722.988281,1202.136108 2717.979492,1202.273560 2712.981201,1202.334473 
	C2710.248535,1202.367798 2707.783936,1201.962402 2705.505127,1200.189453 
	C2701.842529,1197.339600 2701.203369,1193.576416 2701.960938,1189.443115 
	C2702.775635,1184.998047 2706.239014,1183.634277 2710.146729,1183.705566 
	C2728.712402,1184.044312 2747.128418,1180.319824 2765.851318,1182.770874 
	C2776.994141,1184.229614 2788.480957,1183.203979 2799.809082,1183.036133 
	C2804.817139,1182.962158 2808.916504,1184.214478 2812.096436,1188.276489 
	C2815.953857,1193.203979 2815.161621,1193.949341 2810.372803,1198.045654 
	C2803.960693,1203.530884 2797.390137,1203.948120 2789.408936,1203.265625 
	C2772.898438,1201.853760 2769.396729,1205.376953 2770.793213,1221.626465 
	C2774.596191,1265.871094 2772.264648,1310.123535 2771.635498,1354.377563 
	C2771.578857,1358.366211 2771.145020,1362.296753 2770.430420,1366.267212 
	C2768.472168,1377.150513 2770.413818,1387.522095 2776.266113,1396.947754 
	C2779.231689,1401.723755 2782.924316,1405.123169 2789.488525,1402.699951 
	C2792.156494,1401.715210 2795.421631,1402.304565 2798.416260,1402.255127 
	C2813.724121,1402.002563 2829.092773,1403.165283 2844.285400,1400.251587 
	C2846.287354,1399.867920 2848.251953,1399.903076 2850.122559,1400.881348 
	C2856.273193,1404.097900 2863.011475,1403.565186 2869.626221,1404.152466 
	C2876.666748,1404.777710 2881.427002,1401.987915 2886.036865,1396.840332 
	C2896.105713,1385.596680 2903.920166,1373.170898 2908.793213,1358.893433 
	C2908.900635,1358.579590 2909.063965,1358.284668 2909.204590,1357.982544 
	C2911.937744,1352.109497 2915.898682,1348.710449 2919.181641,1349.809692 
	C2924.265625,1351.511841 2924.124268,1356.089966 2924.978027,1360.389282 
	C2928.224121,1376.734253 2922.184570,1392.771973 2923.681396,1409.065796 
	C2924.155273,1414.227661 2920.480713,1416.873169 2915.563232,1417.368408 
	C2910.593262,1417.869019 2905.599854,1418.238403 2900.608154,1418.400879 
	C2886.668701,1418.855103 2872.750732,1418.537964 2858.785645,1419.919434 
	C2839.226562,1421.854004 2819.624268,1418.088013 2799.979492,1418.723389 
	C2790.997803,1419.014160 2781.992920,1418.595581 2771.998291,1418.498535 
z"/>
<path fill="#F8F8F8" opacity="1.000000" stroke="none" 
	d="
M407.033630,1424.919922 
	C381.358459,1382.261353 367.976257,1336.875732 368.052216,1287.647705 
	C368.150024,1224.260742 388.176270,1167.935303 428.424622,1119.067139 
	C475.280884,1062.175903 535.681458,1028.957886 608.796631,1020.755066 
	C663.254761,1014.645325 714.976440,1025.977295 762.745239,1053.001099 
	C837.677063,1095.391846 884.100525,1159.094604 899.109131,1243.826294 
	C910.189819,1306.383057 898.595276,1366.144043 865.924133,1420.736816 
	C823.138672,1492.230469 760.177612,1535.710449 677.850037,1549.779053 
	C605.875000,1562.078735 540.393188,1544.709106 480.800659,1503.589966 
	C450.788696,1482.881714 426.269379,1456.831299 407.033630,1424.919922 
z"/>
<path fill="#FCFCFC" opacity="1.000000" stroke="none" 
	d="
M3306.232422,1208.952026 
	C3314.386230,1217.964355 3319.809814,1227.818848 3324.099609,1238.306030 
	C3328.683838,1249.513306 3326.524658,1260.759399 3322.267334,1271.235718 
	C3319.449707,1278.169678 3314.518799,1284.390625 3309.836914,1290.386719 
	C3302.869385,1299.310303 3293.758789,1303.833130 3281.978271,1302.370117 
	C3276.069824,1301.636353 3270.005127,1302.241577 3264.057861,1301.714600 
	C3256.445801,1301.040649 3252.971436,1297.612061 3253.549805,1290.061890 
	C3255.077637,1270.108398 3253.682129,1250.211060 3253.234375,1230.293579 
	C3253.066162,1222.812988 3255.694580,1215.949341 3257.672363,1208.947266 
	C3258.630859,1205.554077 3261.213867,1202.727051 3264.405029,1202.202026 
	C3273.184082,1200.757324 3282.294189,1198.576050 3290.599609,1203.834229 
	C3295.265869,1206.788208 3300.239014,1208.081665 3306.232422,1208.952026 
z"/>
<path fill="#FDFDFD" opacity="1.000000" stroke="none" 
	d="
M3117.676270,1335.101807 
	C3115.893799,1339.056274 3116.039307,1342.417480 3115.873291,1345.739014 
	C3115.671143,1349.789551 3115.069824,1354.120850 3112.411133,1356.999268 
	C3106.419678,1363.485352 3103.547607,1371.753174 3098.750977,1378.879517 
	C3095.189941,1384.170166 3091.153809,1388.934814 3085.312744,1391.978149 
	C3082.995850,1393.185303 3081.041748,1395.116455 3078.991699,1396.802368 
	C3066.206299,1407.317993 3050.988281,1409.946533 3037.673828,1401.659790 
	C3033.415283,1399.009521 3029.093262,1396.563843 3024.365234,1394.872070 
	C3022.113525,1394.066284 3020.054688,1392.829590 3018.764648,1390.851929 
	C3011.382568,1379.534546 3002.643311,1369.403809 2996.754883,1356.706299 
	C2991.299316,1344.942749 2988.841797,1333.241455 2985.977051,1321.006714 
	C2983.465576,1310.281494 2985.677490,1299.883057 2984.219482,1289.422119 
	C2983.514160,1284.359985 2986.705078,1279.800537 2988.452881,1275.214111 
	C2994.307373,1259.851196 2997.469238,1243.298340 3008.280518,1230.047241 
	C3011.292480,1226.355591 3014.151367,1222.967163 3018.968506,1221.646484 
	C3023.219238,1220.481079 3026.899414,1217.968994 3029.984619,1214.980103 
	C3041.508789,1203.815063 3065.108398,1205.922974 3077.190918,1214.044922 
	C3093.359131,1224.913330 3104.816406,1239.028198 3110.453857,1257.401001 
	C3114.910645,1271.927246 3120.954102,1286.157715 3121.278076,1301.752930 
	C3121.346680,1305.070068 3122.481201,1308.562012 3121.237061,1311.657715 
	C3118.294678,1318.978516 3118.681885,1326.675659 3117.676270,1335.101807 
z"/>
<path fill="#FBFBFB" opacity="1.000000" stroke="none" 
	d="
M2622.636719,1215.404053 
	C2628.790283,1222.874512 2633.243652,1230.623047 2637.559814,1238.447876 
	C2638.502197,1240.156372 2639.545410,1242.123413 2639.560547,1243.979370 
	C2639.673096,1257.774414 2638.474121,1271.315796 2628.873291,1282.384155 
	C2623.008301,1289.145630 2617.213867,1295.997803 2608.626709,1299.709106 
	C2605.951904,1300.865112 2603.568604,1302.887695 2601.335449,1304.838379 
	C2592.612549,1312.456421 2584.697021,1311.301147 2574.864258,1304.597168 
	C2569.905273,1301.216309 2569.945557,1299.759766 2572.002441,1295.376831 
	C2573.402588,1292.392578 2572.931396,1288.753052 2572.033691,1285.549316 
	C2567.428711,1269.118286 2569.003662,1252.806519 2572.888916,1236.571899 
	C2574.156494,1231.275269 2573.937988,1225.942627 2573.509033,1220.732300 
	C2572.788330,1211.972168 2578.385742,1206.616089 2583.043945,1200.696289 
	C2584.696533,1198.595947 2587.243408,1199.235596 2589.557129,1199.817383 
	C2594.376465,1201.029297 2599.175781,1202.349609 2604.041748,1203.338257 
	C2608.090088,1204.160767 2611.374756,1205.719482 2614.156494,1209.033691 
	C2616.218750,1211.490356 2619.381836,1213.022461 2622.636719,1215.404053 
z"/>
<path fill="#F8F8F8" opacity="1.000000" stroke="none" 
	d="
M1362.197021,1314.105835 
	C1347.840942,1317.016968 1337.759644,1305.359741 1342.579956,1291.689575 
	C1348.510254,1274.871338 1353.358154,1257.773682 1357.771606,1240.526367 
	C1358.017578,1239.564697 1358.176025,1238.518677 1358.678101,1237.696899 
	C1360.013306,1235.510864 1360.760132,1232.286743 1363.979004,1232.445190 
	C1366.837524,1232.586060 1367.072266,1235.633179 1367.757446,1237.691040 
	C1374.472290,1257.863159 1381.336060,1277.992310 1387.599854,1298.305542 
	C1391.180908,1309.919067 1386.060791,1315.329590 1373.770142,1313.693237 
	C1370.093262,1313.203735 1366.535522,1312.659790 1362.197021,1314.105835 
z"/>
<path fill="#04070D" opacity="1.000000" stroke="none" 
	d="
M558.147827,1071.999878 
	C623.232178,1048.911377 685.850281,1053.821411 744.891846,1087.290894 
	C815.537415,1127.338379 856.045715,1189.163330 862.949951,1270.053711 
	C867.941467,1328.534668 851.237732,1382.337646 813.719116,1428.369507 
	C763.186462,1490.368042 697.069885,1520.544312 617.777771,1513.740967 
	C528.357300,1506.068604 462.536194,1459.854858 426.435211,1376.911011 
	C394.092529,1302.602051 401.063721,1229.690674 445.044281,1161.496460 
	C472.204681,1119.382935 510.665283,1090.295532 558.147827,1071.999878 
z"/>
<path fill="#F8F8F8" opacity="1.000000" stroke="none" 
	d="
M678.779785,1404.908691 
	C699.049011,1396.633057 715.264465,1384.266113 728.442078,1367.770142 
	C735.363281,1359.106201 734.053772,1360.722900 741.871521,1365.196167 
	C749.045410,1369.301147 756.016418,1373.760498 763.378174,1378.247314 
	C769.397400,1371.074707 773.102600,1362.941895 776.971497,1354.875488 
	C778.694885,1351.282227 776.544250,1350.120850 774.000671,1348.890015 
	C767.408264,1345.699829 760.893127,1342.338135 754.210266,1339.351318 
	C749.952271,1337.448364 747.896118,1335.503052 749.960388,1330.267578 
	C753.005127,1322.545532 755.185425,1314.437134 756.114624,1306.137939 
	C756.582397,1301.960815 758.890686,1301.393921 762.267517,1301.704102 
	C769.564636,1302.374268 776.863281,1303.033203 784.167725,1303.616211 
	C791.463867,1304.198486 791.601624,1304.164917 792.084106,1297.244995 
	C793.106140,1282.584351 793.328918,1267.946289 790.076477,1253.469238 
	C789.562927,1251.183716 789.234192,1248.868164 787.090637,1246.906494 
	C780.322693,1248.846191 773.360474,1250.850830 766.392883,1252.836304 
	C756.964172,1255.522705 756.912598,1255.530884 754.265198,1246.455078 
	C745.291504,1215.692017 728.304932,1190.211304 702.558350,1171.224854 
	C656.671387,1137.386353 608.022400,1133.152588 557.144775,1159.600708 
	C549.266541,1163.696167 549.319641,1163.849854 543.986206,1156.715942 
	C538.002441,1148.712036 532.205078,1140.563232 526.033936,1132.707397 
	C523.033325,1128.887695 523.582764,1126.687988 527.519348,1123.961670 
	C543.270386,1113.053467 560.428101,1105.155762 578.604797,1099.366699 
	C602.375427,1091.796021 626.647400,1088.602905 651.560608,1091.393433 
	C659.731018,1092.308472 659.735352,1092.316040 659.985535,1100.971924 
	C660.091431,1104.636230 660.376282,1108.310791 660.207947,1111.963623 
	C660.010803,1116.241211 661.309875,1118.566895 665.939148,1119.562622 
	C707.842590,1128.575195 739.132446,1153.187622 764.236694,1186.842285 
	C766.995422,1190.540771 769.083618,1194.837769 773.365356,1197.936401 
	C781.734863,1192.755127 790.194641,1187.518066 798.875488,1182.144165 
	C802.934998,1185.372803 805.044128,1189.950195 807.247375,1194.296997 
	C832.762085,1244.636108 836.744202,1296.751587 819.079468,1350.285034 
	C804.172241,1395.461792 775.106384,1429.620239 735.410217,1455.152222 
	C733.454407,1456.410156 731.237000,1457.279785 729.351318,1458.624634 
	C724.952759,1461.761475 722.468201,1460.496704 720.207214,1455.804443 
	C716.742432,1448.614258 712.544189,1441.781250 708.868835,1434.687012 
	C707.350159,1431.755615 705.674438,1430.789429 702.590027,1432.412720 
	C691.609131,1438.191284 679.991150,1442.226074 667.768921,1444.333496 
	C662.874512,1445.177490 663.012573,1447.905518 664.222717,1451.508179 
	C666.554749,1458.451172 668.949463,1465.376099 671.112610,1472.371948 
	C673.108887,1478.828369 673.014160,1478.984863 666.600220,1480.259155 
	C654.473206,1482.668945 642.217041,1483.700806 629.842102,1483.705444 
	C625.604431,1483.707031 623.913025,1482.378784 623.951477,1477.979736 
	C624.117737,1458.984863 624.168396,1439.986450 623.953735,1420.992676 
	C623.898193,1416.082031 625.730469,1414.661865 630.387085,1414.732910 
	C646.937561,1414.985596 662.786987,1411.420654 678.779785,1404.908691 
z"/>
<path fill="#5D273D" opacity="1.000000" stroke="none" 
	d="
M632.352966,1375.390869 
	C612.251709,1377.379639 593.502563,1373.407959 577.102539,1362.050293 
	C549.431885,1342.887207 534.058960,1316.926392 533.665222,1282.364136 
	C533.247375,1245.684814 549.180176,1218.479370 579.423950,1199.141968 
	C614.747131,1176.557007 665.336121,1183.083374 692.791626,1211.032349 
	C706.527405,1225.014893 716.121216,1240.613770 720.945862,1259.463257 
	C722.216064,1264.425659 721.920349,1269.362915 722.274536,1275.215088 
	C711.365601,1273.775757 706.153564,1263.678101 697.733704,1257.905518 
	C693.469421,1254.981934 690.684082,1250.101440 685.056274,1247.560303 
	C680.945557,1244.560913 678.371643,1241.042114 675.352478,1237.965454 
	C647.150391,1209.225220 584.556824,1212.643799 568.647278,1264.489502 
	C562.283081,1285.229126 565.181580,1306.033203 581.508484,1322.908203 
	C587.763733,1329.373535 594.530151,1335.220825 602.007202,1341.405151 
	C610.242981,1350.149414 618.415833,1357.921265 626.292603,1365.984741 
	C628.813354,1368.565430 631.816833,1370.843506 632.352966,1375.390869 
z"/>
<path fill="#F7F7F7" opacity="1.000000" stroke="none" 
	d="
M558.062500,1431.953857 
	C551.899292,1429.525635 547.210022,1422.503174 541.987793,1424.282715 
	C537.605042,1425.776123 535.039062,1432.676025 531.728027,1437.225464 
	C523.742615,1448.197266 523.765869,1448.195679 512.758789,1439.677246 
	C505.359222,1433.950562 498.710388,1427.432007 492.256653,1420.678345 
	C489.660522,1417.961548 489.347046,1415.997314 492.537354,1413.427246 
	C498.240631,1408.832886 503.616394,1403.834106 509.222229,1399.115112 
	C511.429321,1397.257202 511.773865,1395.529053 509.907623,1393.236328 
	C503.804840,1385.738892 498.140472,1377.916992 493.222748,1369.588623 
	C491.435242,1366.561401 489.400330,1366.592163 486.641632,1368.126465 
	C479.670715,1372.003906 472.622040,1375.741577 464.849884,1379.943359 
	C459.118103,1370.890503 454.315094,1361.645996 450.583740,1351.037476 
	C467.718292,1343.535400 484.497375,1336.316895 501.146362,1328.809692 
	C505.318695,1326.928345 506.838806,1328.268799 508.567230,1332.043823 
	C513.424255,1342.651978 519.262329,1352.736694 526.326721,1362.072021 
	C540.474304,1380.767822 557.803406,1395.538208 579.700439,1404.328857 
	C585.177917,1406.527832 587.411072,1409.333252 587.050903,1415.343628 
	C586.516968,1424.253174 586.912720,1433.218506 586.912720,1443.212891 
	C576.172607,1441.097290 567.549072,1436.433716 558.062500,1431.953857 
z"/>
<path fill="#5D273D" opacity="1.000000" stroke="none" 
	d="
M504.166321,1214.179932 
	C497.000885,1210.455933 490.294556,1207.523438 484.089569,1203.549316 
	C479.356750,1200.518188 477.078918,1201.165894 474.269226,1205.938721 
	C469.357117,1214.282715 465.619049,1223.163940 462.806976,1232.456055 
	C461.511444,1236.737061 462.363617,1238.970459 466.861023,1240.763184 
	C475.577759,1244.237915 484.688477,1245.995361 493.694061,1248.273926 
	C501.120239,1250.152954 501.120056,1250.233276 500.140198,1258.111084 
	C499.074524,1266.678711 497.477325,1275.213745 498.244995,1283.904053 
	C498.607513,1288.007324 496.674469,1289.987305 492.843079,1290.784424 
	C486.671234,1292.068115 480.555969,1293.628540 474.375336,1294.864624 
	C463.631256,1297.013428 453.931488,1302.341309 442.865753,1305.644897 
	C441.047882,1292.251343 439.200775,1279.742432 441.106903,1266.663330 
	C442.833435,1254.816650 444.670319,1243.080566 447.665833,1231.481812 
	C453.509460,1208.854980 464.872772,1189.084961 478.567535,1170.472412 
	C479.548035,1169.139771 480.861511,1168.057495 481.943054,1166.792847 
	C484.352631,1163.975098 486.785583,1163.537476 489.440338,1166.485229 
	C499.115234,1177.228271 510.321075,1185.983521 523.174744,1192.653931 
	C526.364075,1194.308960 525.861145,1196.581543 523.877136,1199.200562 
	C520.873230,1203.165649 517.773315,1207.160034 515.497559,1211.548462 
	C512.790039,1216.769165 509.341370,1216.900879 504.166321,1214.179932 
z"/>
<path fill="#2E1424" opacity="1.000000" stroke="none" 
	d="
M632.994507,1376.077271 
	C625.707642,1367.520996 617.284241,1360.901611 610.065857,1353.124634 
	C607.584412,1350.451294 605.116882,1347.765015 602.439575,1344.450928 
	C606.254883,1340.513428 610.495239,1342.540405 614.600525,1343.436157 
	C660.740601,1353.502808 700.331726,1316.053101 692.986511,1269.503418 
	C691.717163,1261.459106 685.497070,1255.411987 685.573242,1246.580566 
	C689.415283,1245.912476 691.252319,1248.403442 693.414795,1250.379150 
	C702.606812,1258.776855 711.812134,1267.159912 721.653748,1275.829224 
	C722.950684,1286.550293 722.747131,1297.003174 719.820129,1307.070679 
	C711.937012,1334.184814 696.255371,1355.306396 670.426758,1367.679443 
	C659.025574,1373.140991 646.873901,1376.844238 632.994507,1376.077271 
z"/>
<path fill="#04050B" opacity="1.000000" stroke="none" 
	d="
M685.530029,1245.545166 
	C686.062561,1247.664185 686.737244,1249.094849 687.623047,1250.562256 
	C701.199646,1273.055298 699.276184,1295.709717 686.137634,1317.154297 
	C676.464294,1332.942993 661.615356,1342.271851 642.953186,1346.321289 
	C629.333923,1349.276367 616.753052,1346.543823 603.039917,1343.854858 
	C595.359131,1339.154053 588.818115,1334.142700 582.858276,1328.263672 
	C569.886963,1315.468506 563.330811,1300.612305 563.568054,1281.984497 
	C563.904663,1255.554321 576.210388,1236.986206 598.569946,1224.762207 
	C624.012207,1210.852661 664.799316,1215.708862 685.530029,1245.545166 
z"/>
<path fill="#5D273D" opacity="1.000000" stroke="none" 
	d="
M633.448975,1240.034668 
	C647.844788,1241.427490 658.082214,1248.706543 665.881897,1259.123413 
	C675.443604,1271.893677 676.739258,1290.587280 666.095886,1305.770264 
	C655.694885,1320.607666 640.936340,1326.515015 623.455383,1323.637329 
	C606.524353,1320.850342 593.797852,1311.610229 589.136414,1294.214722 
	C580.265503,1261.110107 605.494202,1238.536133 633.448975,1240.034668 
z"/>
<path fill="#04050B" opacity="1.000000" stroke="none" 
	d="
M640.824341,1291.659790 
	C636.559570,1286.739624 634.776245,1282.103516 637.753601,1276.518677 
	C640.934204,1270.552490 646.460876,1268.296509 652.860596,1270.591553 
	C658.435730,1272.591187 661.121155,1278.090088 660.070129,1285.354980 
	C659.191589,1291.428223 655.841553,1294.074585 648.933350,1294.140869 
	C646.253906,1294.166626 643.592712,1294.103638 640.824341,1291.659790 
z"/>
</svg>